<svg xmlns="http://www.w3.org/2000/svg" viewBox="0 0 44.7 34.95"><defs><style>.cls-1{fill:#fff;}.cls-2{fill:#00c7e8;}</style></defs><title>Ресурс 3</title><g id="Слой_2" data-name="Слой 2"><g id="object"><path class="cls-1" d="M39,21.16H5.7A2.86,2.86,0,0,0,3,23.06L.16,31.15a2.89,2.89,0,0,0,.36,2.6A2.86,2.86,0,0,0,2.85,35h39a2.86,2.86,0,0,0,2.33-1.2,2.83,2.83,0,0,0,.36-2.6l-2.85-8.08A2.84,2.84,0,0,0,39,21.16Z"/><rect class="cls-2" x="19.84" y="32.99" width="5.01" height="0.83"/><path class="cls-1" d="M39,20.92H5.7V2.85H39M39,0H5.7A2.85,2.85,0,0,0,2.85,2.85V23.78h39V2.85A2.86,2.86,0,0,0,39,0Z"/></g></g></svg>