<svg xmlns="http://www.w3.org/2000/svg" viewBox="0 0 11.97 11.97"><defs><style>.cls-1{fill:#fff;}</style></defs><title>Ресурс 17</title><g id="Слой_2" data-name="Слой 2"><g id="object"><path class="cls-1" d="M6,12a6,6,0,1,1,6-6A6,6,0,0,1,6,12ZM11,6.81a7.45,7.45,0,0,0-3.19-.22,22.16,22.16,0,0,1,1,3.65A5.14,5.14,0,0,0,11,6.81ZM8,10.7A21.16,21.16,0,0,0,6.89,6.82h0a7,7,0,0,0-4,3.19A5.08,5.08,0,0,0,8,10.7ZM2.19,9.42A8,8,0,0,1,6.35,6L6.55,6c-.12-.29-.27-.58-.41-.87a18.89,18.89,0,0,1-5.26.73c0,.05,0,.11,0,.15A5.1,5.1,0,0,0,2.19,9.42ZM1,4.95a19.57,19.57,0,0,0,4.73-.62,33,33,0,0,0-1.9-3A5.15,5.15,0,0,0,1,4.95ZM4.79,1A26.73,26.73,0,0,1,6.7,4,5.75,5.75,0,0,0,9.38,2.17,5.07,5.07,0,0,0,6,.87,5.28,5.28,0,0,0,4.79,1ZM9.95,2.76a6.75,6.75,0,0,1-2.85,2l.34.74c0,.1.07.18.11.27a12,12,0,0,1,3.57.16A5.06,5.06,0,0,0,9.95,2.76Z"/></g></g></svg>