<svg xmlns="http://www.w3.org/2000/svg" viewBox="0 0 10.37 10.43">
    <defs>
        <style>.cls-1{fill:#fff;}</style>
    </defs>
    <title>Ресурс 15</title>
    <g id="Слой_2" data-name="Слой 2">
        <g id="object">
            <path class="cls-1"
                  d="M5,.49a2,2,0,0,1,.29.23,2.55,2.55,0,0,1,.31.4,2.33,2.33,0,0,1,.25.52,2.53,2.53,0,0,1,.09.7,2,2,0,0,1-.32,1.17,4,4,0,0,1-.32.4c-.12.12-.26.24-.41.37a1.76,1.76,0,0,0-.22.28A.66.66,0,0,0,4.5,5a.51.51,0,0,0,.12.35,1.67,1.67,0,0,0,.21.24l.47.38A4.78,4.78,0,0,1,6,6.71a2,2,0,0,1,.32,1.14,2.29,2.29,0,0,1-.88,1.77,4,4,0,0,1-2.63.82A3.33,3.33,0,0,1,.71,9.82,1.67,1.67,0,0,1,0,8.48,2,2,0,0,1,1.05,6.81a4.25,4.25,0,0,1,1.39-.51,10,10,0,0,1,1.21-.12,2.54,2.54,0,0,1-.26-.42.91.91,0,0,1-.14-.52.75.75,0,0,1,.05-.3c0-.09.05-.16.08-.23L3,4.74a2.08,2.08,0,0,1-1.67-.69A2,2,0,0,1,.68,2.59,2.49,2.49,0,0,1,1.53.76,3.06,3.06,0,0,1,2.74.13,6,6,0,0,1,3.91,0H6.65L5.81.49Zm.53,7.89a1.29,1.29,0,0,0-.34-.91A8.44,8.44,0,0,0,4,6.57H3.71a3.32,3.32,0,0,0-.53,0,7.12,7.12,0,0,0-.87.19L2,6.9a2.28,2.28,0,0,0-.39.24,1.48,1.48,0,0,0-.32.42,1.25,1.25,0,0,0-.15.63,1.39,1.39,0,0,0,.65,1.18,2.81,2.81,0,0,0,1.7.49A2.35,2.35,0,0,0,5,9.43,1.29,1.29,0,0,0,5.49,8.39Zm-1.91-4A1.29,1.29,0,0,0,4.48,4a1.39,1.39,0,0,0,.23-.54,4.14,4.14,0,0,0,0-.46,3.61,3.61,0,0,0-.42-1.64A1.86,1.86,0,0,0,3.81.7,1.32,1.32,0,0,0,3.06.46,1.21,1.21,0,0,0,2.14.9a1.69,1.69,0,0,0-.3,1,3.19,3.19,0,0,0,.44,1.55,2.22,2.22,0,0,0,.54.64A1.23,1.23,0,0,0,3.58,4.37Z"/>
            <polygon class="cls-1"
                     points="10.37 1.5 8.93 1.5 8.93 0.07 8.23 0.07 8.23 1.5 6.79 1.5 6.79 2.19 8.23 2.19 8.23 3.63 8.93 3.63 8.93 2.19 10.37 2.19 10.37 1.5"/>
        </g>
    </g>
</svg>