<svg xmlns="http://www.w3.org/2000/svg" viewBox="0 0 8.94 8.93"><defs><style>.cls-1{fill:#fff;}</style></defs><title>Ресурс 19</title><g id="Слой_2" data-name="Слой 2"><g id="object"><path class="cls-1" d="M1.14,0H7.79A1.15,1.15,0,0,1,8.94,1.15V7.79A1.15,1.15,0,0,1,7.79,8.93H1.14A1.14,1.14,0,0,1,0,7.79V1.15A1.15,1.15,0,0,1,1.14,0ZM6.51,1a.4.4,0,0,0-.4.4v1a.4.4,0,0,0,.4.4h1a.4.4,0,0,0,.4-.4v-1a.4.4,0,0,0-.4-.4ZM7.93,3.78H7.14a2.65,2.65,0,0,1,.11.77A2.74,2.74,0,0,1,4.48,7.24,2.74,2.74,0,0,1,1.7,4.54a2.65,2.65,0,0,1,.11-.77H1V7.56a.36.36,0,0,0,.36.35H7.57a.36.36,0,0,0,.36-.35ZM4.48,2.71A1.77,1.77,0,0,0,2.68,4.45,1.77,1.77,0,0,0,4.48,6.19a1.77,1.77,0,0,0,1.8-1.74A1.77,1.77,0,0,0,4.48,2.71Z"/></g></g></svg>