<svg xmlns="http://www.w3.org/2000/svg" viewBox="0 0 28.71 29.33"><defs><style>.cls-1{fill:#fff;}.cls-2{fill:#313332;}</style></defs><title>Ресурс 4</title><g id="Слой_2" data-name="Слой 2"><g id="object"><path class="cls-1" d="M28.71,24.34a5,5,0,0,1-5,5H5a5,5,0,0,1-5-5V5A5,5,0,0,1,5,0H23.71a5,5,0,0,1,5,5Z"/><path class="cls-2" d="M18.61,5.94,14.8,9.75a2.82,2.82,0,0,0-.15,3.81l-.85.85a2.8,2.8,0,0,0-3.8.15L6.18,18.37a2.82,2.82,0,0,0,0,4l1.15,1.15a2.81,2.81,0,0,0,4,0l3.81-3.81a2.82,2.82,0,0,0,.15-3.81l.85-.85a2.8,2.8,0,0,0,3.8-.15l3.81-3.8a2.83,2.83,0,0,0,0-4L22.58,5.94A2.8,2.8,0,0,0,18.61,5.94Zm-5,12.27L9.83,22a.74.74,0,0,1-1,0L7.64,20.87a.75.75,0,0,1,0-1L11.45,16a.73.73,0,0,1,.86-.14l-.65.65A1,1,0,1,0,13.13,18l.65-.65A.74.74,0,0,1,13.65,18.21Zm8.62-9.66a.75.75,0,0,1,0,1l-3.81,3.81a.74.74,0,0,1-.86.13l.65-.65a1,1,0,1,0-1.46-1.46l-.64.65a.74.74,0,0,1,.13-.86L20.07,7.4a.74.74,0,0,1,1,0Z"/></g></g></svg>