<svg xmlns="http://www.w3.org/2000/svg" viewBox="0 0 28.7 29.33"><defs><style>.cls-1{isolation:isolate;}.cls-2,.cls-4{fill:#fff;}.cls-3{fill:#313332;}.cls-4{mix-blend-mode:multiply;}</style></defs><title>Ресурс 1</title><g class="cls-1"><g id="Слой_2" data-name="Слой 2"><g id="object"><rect class="cls-2" width="28.7" height="29.33" rx="4.99" ry="4.99"/><path class="cls-3" d="M25,21.63l-2.68,2.68-6.7-6.7c-.74-.75,1.94-3.42,2.68-2.68Z"/><path class="cls-3" d="M13.4,19.65a6.92,6.92,0,1,1,4.9-2A6.88,6.88,0,0,1,13.4,19.65ZM13.41,9A3.7,3.7,0,1,0,16,10.1,3.69,3.69,0,0,0,13.41,9Z"/><path class="cls-4" d="M13.41,9A3.66,3.66,0,0,1,16,10.1a3.71,3.71,0,0,1,0,5.24,3.7,3.7,0,0,1-5.23,0A3.7,3.7,0,0,1,13.41,9"/></g></g></g></svg>