<svg xmlns="http://www.w3.org/2000/svg" viewBox="0 0 47.17 46.02"><defs><style>.cls-1{isolation:isolate;}.cls-2,.cls-3{fill:#fff;}.cls-3{mix-blend-mode:multiply;}</style></defs><title>Ресурс 2</title><g class="cls-1"><g id="Слой_2" data-name="Слой 2"><g id="object"><path class="cls-2" d="M22.27,30.29V26.76A7.68,7.68,0,0,0,22.27,30.29Z"/><path class="cls-2" d="M13.3,32.63c.93.21,1.89.38,2.89.52a14.15,14.15,0,0,1-.63-2.67,29.56,29.56,0,0,1-3.34-.77A30.17,30.17,0,0,1,11,22.27h5.86a14.21,14.21,0,0,1,1.58-2.53H11a30.2,30.2,0,0,1,1.21-7.53A30.2,30.2,0,0,1,19.74,11v7.29a14.32,14.32,0,0,1,2.53-1.95V11a30.36,30.36,0,0,1,7.44,1.21c.2.66.37,1.36.53,2.06a14.37,14.37,0,0,1,2.67.35c-.09-.45-.17-.89-.27-1.33,1.93.87,7,4,9.32,8,0-.1,0-.2,0-.3A21,21,0,0,0,21,0h-.13A21,21,0,0,0,.08,19.89,7.31,7.31,0,0,0,.08,22,21,21,0,0,0,20.87,41.9H21a21.09,21.09,0,0,0,3.1-.23C22.5,41,15.74,39,13.3,32.63ZM37.82,13.44a20.45,20.45,0,0,0-6.09-3.27,20.63,20.63,0,0,0-3.24-6A18.52,18.52,0,0,1,37.82,13.44ZM22.27,2.7c2.52.64,4.77,3.08,6.35,6.57a34.48,34.48,0,0,0-6.35-.81Zm-2.53,0V8.46a34,34,0,0,0-6.44.81C14.9,5.73,17.19,3.27,19.74,2.68ZM13.35,4.2a20.65,20.65,0,0,0-3.18,6,20.67,20.67,0,0,0-5.93,3.15A18.53,18.53,0,0,1,13.35,4.2ZM9.27,13.3a34,34,0,0,0-.81,6.44H2.68C3.28,17.19,5.73,14.9,9.27,13.3Zm-.81,9a34,34,0,0,0,.81,6.35C5.78,27,3.34,24.78,2.7,22.27ZM4.24,28.58a20.64,20.64,0,0,0,5.93,3.16,20.76,20.76,0,0,0,3.18,6A18.53,18.53,0,0,1,4.24,28.58Z"/><path class="cls-2" d="M46.28,40.78a3.07,3.07,0,0,1,0,4.34h0a3.07,3.07,0,0,1-4.34,0l-8.67-8.67c-1.2-1.2,3.14-5.54,4.34-4.34Z"/><path class="cls-2" d="M29.67,39.73a11.21,11.21,0,1,1,7.93-3.28A11.14,11.14,0,0,1,29.67,39.73Zm0-17.19a6,6,0,1,0,4.24,10.22,6,6,0,0,0-4.24-10.22Z"/><path class="cls-3" d="M29.67,22.54a6,6,0,1,1-4.23,1.75,6,6,0,0,1,4.23-1.75"/></g></g></g></svg>