<svg xmlns="http://www.w3.org/2000/svg" viewBox="0 0 47.13 48.44"><defs><style>.cls-1{fill:#fff;}</style></defs><title>Ресурс 4</title><g id="Слой_2" data-name="Слой 2"><g id="object"><path class="cls-1" d="M30.87,33c0-.07,0-.14,0-.21h0c0-.5,0-1-.08-1.51a1,1,0,0,0-1-.76,3.41,3.41,0,0,1-2.33-5.94.86.86,0,0,0,.09-1.16A15.42,15.42,0,0,0,25.11,21a.86.86,0,0,0-1.18.09,3.55,3.55,0,0,1-3.85.86A3.44,3.44,0,0,1,18,18.56a.85.85,0,0,0-.76-.9,16,16,0,0,0-1.75-.1h-.07a14.81,14.81,0,0,0-1.58.09h-.19a.85.85,0,0,0-.76.9,3.43,3.43,0,0,1-1.15,2.76,3.33,3.33,0,0,1-.85.51A3.57,3.57,0,0,1,7.06,21a.87.87,0,0,0-1.17-.1l-.07.06-.06,0c-.31.25-.59.52-.87.79l-.37.33c-.18.18-.33.37-.5.55s-.44.46-.64.71l0,0,0,.05a.86.86,0,0,0,.09,1.16,3.44,3.44,0,0,1,.86,3.82,3.56,3.56,0,0,1-.5.85A3.73,3.73,0,0,1,1,30.44a.84.84,0,0,0-.9.76s0,.05,0,.08h0c0,.06,0,.12,0,.18C0,32,0,32.48,0,33s0,1,.08,1.54c0,.06,0,.12,0,.18h0s0,.05,0,.08a.84.84,0,0,0,.9.76,3.72,3.72,0,0,1,2.79,1.19,3.53,3.53,0,0,1,.5.85,3.44,3.44,0,0,1-.86,3.82.86.86,0,0,0-.09,1.17l0,.05,0,0c.2.25.43.47.64.71s.32.38.5.55l.37.33c.28.27.57.54.87.79l.06,0,.07.06A.86.86,0,0,0,7.06,45a3.57,3.57,0,0,1,3.82-.87,3.45,3.45,0,0,1,.85.51,3.44,3.44,0,0,1,1.15,2.76.86.86,0,0,0,.76.9h.19a15.13,15.13,0,0,0,1.58.09h.07a15.31,15.31,0,0,0,1.75-.1.85.85,0,0,0,.76-.9,3.44,3.44,0,0,1,2.09-3.35,3.55,3.55,0,0,1,3.85.87.87.87,0,0,0,1.18.09,15.57,15.57,0,0,0,2.44-2.47.86.86,0,0,0-.09-1.16,3.41,3.41,0,0,1,2.33-5.93,1,1,0,0,0,1-.76c.05-.5.08-1,.08-1.51h0C30.87,33.13,30.87,33.06,30.87,33ZM15.46,39.71A6.71,6.71,0,1,1,22.21,33,6.76,6.76,0,0,1,15.46,39.71Z"/><path class="cls-1" d="M39.09,9.81s0-.09,0-.13h0c0-.32,0-.64,0-1a.64.64,0,0,0-.64-.49,2.16,2.16,0,0,1-1.48-3.77A.54.54,0,0,0,37,3.73a10,10,0,0,0-1.55-1.57.55.55,0,0,0-.75.06,2.26,2.26,0,0,1-2.44.55A2.19,2.19,0,0,1,30.91.64a.54.54,0,0,0-.48-.57A10.88,10.88,0,0,0,29.32,0h0a9.46,9.46,0,0,0-1,.06h-.12a.54.54,0,0,0-.48.57,2.18,2.18,0,0,1-.73,1.75,2.15,2.15,0,0,1-.54.32A2.27,2.27,0,0,1,24,2.16a.55.55,0,0,0-.74-.06l0,0,0,0c-.19.16-.37.33-.55.5l-.23.21c-.11.11-.21.23-.32.35s-.27.29-.4.45v0l0,0a.54.54,0,0,0,.06.74,2.2,2.2,0,0,1,.55,2.43,2.38,2.38,0,0,1-.32.54,2.38,2.38,0,0,1-1.78.76.53.53,0,0,0-.56.48.28.28,0,0,0,0,.05h0a.73.73,0,0,0,0,.11c0,.33-.05.65-.05,1s0,.65.05,1a.72.72,0,0,0,0,.11h0a.26.26,0,0,0,0,0,.53.53,0,0,0,.56.48,2.39,2.39,0,0,1,1.78.76,2.4,2.4,0,0,1,.32.54,2.19,2.19,0,0,1-.55,2.42.54.54,0,0,0-.06.74l0,0v0c.13.16.27.3.4.45s.21.24.32.35l.23.21c.18.17.36.35.55.5l0,0,0,0a.55.55,0,0,0,.74-.06,2.16,2.16,0,0,1,3-.23A2.19,2.19,0,0,1,27.67,19a.54.54,0,0,0,.48.57h.12a9.46,9.46,0,0,0,1,.06h0a10.46,10.46,0,0,0,1.11-.07.54.54,0,0,0,.48-.57,2.19,2.19,0,0,1,1.33-2.13,2.26,2.26,0,0,1,2.44.55.55.55,0,0,0,.75.06A10.17,10.17,0,0,0,37,15.88a.54.54,0,0,0-.06-.74,2.16,2.16,0,0,1,1.48-3.77.64.64,0,0,0,.64-.48c0-.32,0-.64,0-1h0S39.09,9.85,39.09,9.81ZM29.3,14.07a4.26,4.26,0,1,1,4.29-4.26A4.29,4.29,0,0,1,29.3,14.07Z"/><path class="cls-1" d="M47.13,26.42v-.11h0c0-.26,0-.52,0-.79a.53.53,0,0,0-.51-.4A1.78,1.78,0,0,1,45.35,22a.45.45,0,0,0,.05-.61,8.23,8.23,0,0,0-1.28-1.29.45.45,0,0,0-.61.05,1.86,1.86,0,0,1-2,.45,1.78,1.78,0,0,1-1.09-1.75.45.45,0,0,0-.4-.47,8.11,8.11,0,0,0-.91-.05h0a7.73,7.73,0,0,0-.83,0h-.1a.45.45,0,0,0-.4.47,1.79,1.79,0,0,1-.6,1.44,1.77,1.77,0,0,1-.45.26,1.85,1.85,0,0,1-2-.45.46.46,0,0,0-.61,0l0,0,0,0c-.16.13-.31.27-.46.41l-.19.17c-.09.09-.18.19-.26.29s-.23.24-.33.37v0l0,0a.44.44,0,0,0,0,.6A1.77,1.77,0,0,1,33,24.47a1.93,1.93,0,0,1-1.45.62.44.44,0,0,0-.47.4.1.1,0,0,0,0,0h0s0,.06,0,.1c0,.26,0,.53,0,.8s0,.54,0,.8c0,0,0,.06,0,.09h0a.09.09,0,0,0,0,0,.44.44,0,0,0,.47.4,1.94,1.94,0,0,1,1.45.62,1.87,1.87,0,0,1,.26.44,1.79,1.79,0,0,1-.45,2,.45.45,0,0,0,0,.61l0,0v0c.1.13.22.25.33.37s.17.19.26.29l.19.17c.15.14.3.28.46.41h0l0,0a.46.46,0,0,0,.61,0,1.85,1.85,0,0,1,2-.46,1.82,1.82,0,0,1,.45.26,1.79,1.79,0,0,1,.6,1.44.45.45,0,0,0,.4.47h.1a8.15,8.15,0,0,0,.83,0h0c.31,0,.61,0,.91-.05a.46.46,0,0,0,.4-.47,1.78,1.78,0,0,1,1.09-1.75,1.86,1.86,0,0,1,2,.45.45.45,0,0,0,.61.05,8.06,8.06,0,0,0,1.28-1.29.45.45,0,0,0-.05-.61,1.78,1.78,0,0,1,1.22-3.09.53.53,0,0,0,.51-.4c0-.26,0-.52,0-.78h0Zm-8,3.5a3.5,3.5,0,1,1,3.52-3.5A3.52,3.52,0,0,1,39.1,29.92Z"/></g></g></svg>