<svg xmlns="http://www.w3.org/2000/svg" viewBox="0 0 9.82 7.98"><defs><style>.cls-1{fill:#fff;}</style></defs><title>Ресурс 18</title><g id="Слой_2" data-name="Слой 2"><g id="object"><path class="cls-1" d="M9.82.95a3.77,3.77,0,0,1-1.15.32A2,2,0,0,0,9.55.15,4,4,0,0,1,8.27.64,2,2,0,0,0,4.78,2a2.13,2.13,0,0,0,.05.46A5.72,5.72,0,0,1,.69.37a2,2,0,0,0-.27,1,2,2,0,0,0,.9,1.67A1.86,1.86,0,0,1,.39,2.8v0A2,2,0,0,0,2,4.81a2.23,2.23,0,0,1-.53.07,2.64,2.64,0,0,1-.38,0A2,2,0,0,0,3,6.24a4,4,0,0,1-2.5.86,3.23,3.23,0,0,1-.48,0A5.7,5.7,0,0,0,3.09,8,5.69,5.69,0,0,0,8.82,2.25c0-.08,0-.17,0-.26A4.23,4.23,0,0,0,9.82.95Z"/></g></g></svg>