<svg xmlns="http://www.w3.org/2000/svg" viewBox="0 0 9.96 12.05"><defs><style>.cls-1{fill:#fff;}.cls-2{fill:#00bac9;}</style></defs><title>Ресурс 12</title><g id="Слой_2" data-name="Слой 2"><g id="object"><path class="cls-1" d="M3.94,0H3.25L2.79,1.76,2.31,0H1.6c.15.41.29.83.43,1.25a9.75,9.75,0,0,1,.41,1.43V4.5h.68V2.68Zm1.8,3.41V2.24a1.28,1.28,0,0,0-.19-.79.81.81,0,0,0-.7-.35.81.81,0,0,0-.71.35,1.25,1.25,0,0,0-.19.79V3.41a1.25,1.25,0,0,0,.19.79.83.83,0,0,0,.71.34.83.83,0,0,0,.7-.34A1.29,1.29,0,0,0,5.74,3.41Zm-.61.11c0,.32-.09.46-.29.46s-.3-.15-.3-.46V2.12c0-.31.1-.47.3-.47s.29.16.29.47ZM8,4.5V1.15h-.6V3.71C7.24,3.9,7.11,4,7,4s-.12,0-.14-.14a1.69,1.69,0,0,1,0-.23V1.15H6.23V3.8a1.78,1.78,0,0,0,.05.49.38.38,0,0,0,.4.26,1,1,0,0,0,.7-.42V4.5Z"/><path class="cls-1" d="M10,8.57a10.83,10.83,0,0,1-.18,2.36,1.26,1.26,0,0,1-1.07,1A34.06,34.06,0,0,1,5,12a33.92,33.92,0,0,1-3.73-.14,1.27,1.27,0,0,1-1.08-1A11,11,0,0,1,0,8.57,10.78,10.78,0,0,1,.17,6.22a1.26,1.26,0,0,1,1.08-1A33.92,33.92,0,0,1,5,5.1a34,34,0,0,1,3.73.14,1.26,1.26,0,0,1,1.07,1A10.61,10.61,0,0,1,10,8.57Z"/><path class="cls-2" d="M2.84,6.9V6.28H.74V6.9h.71v3.83h.67V6.9Zm1.21,3.83v-.36a1,1,0,0,1-.68.41A.37.37,0,0,1,3,10.53,1.85,1.85,0,0,1,2.92,10V7.41h.6V9.85a1.84,1.84,0,0,0,0,.24c0,.09.06.14.13.14s.25-.09.38-.28V7.41h.6v3.32Zm2.29-.95c0,.3-.09.45-.26.45a.43.43,0,0,1-.3-.15v-2a.45.45,0,0,1,.3-.14c.17,0,.26.15.26.45Zm.6,0V8.41a2.55,2.55,0,0,0-.06-.67.47.47,0,0,0-.48-.37.81.81,0,0,0-.62.35V6.28H5.18v4.45h.61v-.32a.81.81,0,0,0,.62.37.47.47,0,0,0,.48-.38A2.65,2.65,0,0,0,6.94,9.73ZM8.61,8.68H8V8.37c0-.31.1-.46.3-.46s.3.15.3.46Zm.6,1V9.58H8.6c0,.24,0,.37,0,.41a.26.26,0,0,1-.27.24c-.21,0-.31-.15-.31-.46V9.18h1.2V8.49A1.23,1.23,0,0,0,9,7.71a.82.82,0,0,0-.71-.34.84.84,0,0,0-.72.34,1.25,1.25,0,0,0-.19.78V9.65a1.25,1.25,0,0,0,.2.78.83.83,0,0,0,.73.35.84.84,0,0,0,.87-.73C9.2,10,9.21,9.86,9.21,9.67Z"/></g></g></svg>